<svg width="92" height="67" viewBox="0 0 92 70" fill="none" xmlns="http://www.w3.org/2000/svg">
<path d="M32 33L25.5 44H40L32 33Z" fill="var(--secondary-color)"/>
<rect x="53" y="9" width="24" height="14" fill="var(--secondary-color)"/>
<path d="M52.615 69.6873H39.3828C38.8389 69.6873 38.4005 69.2464 38.4005 68.705V63.8941L1.1812 63.9852C0.651723 63.9972 0.184535 63.5324 0.196514 63.0005V14.1974C0.196514 13.6535 0.637348 13.2151 1.17881 13.2151C1.72266 13.2151 2.16349 13.6559 2.16349 14.1974V62.0158L39.3828 61.9272C39.9122 61.9152 40.3794 62.38 40.3675 62.9095V67.7203H51.6327V62.6004C51.6231 62.0709 52.0879 61.6061 52.615 61.6181L89.8366 61.6253V14.1974C89.8366 13.6535 90.2775 13.2151 90.8189 13.2151C91.3628 13.2151 91.8012 13.6559 91.8012 14.1974V62.61C91.8108 63.1395 91.346 63.6042 90.8189 63.5923L53.5972 63.5851V68.7074C53.5972 69.2464 53.1588 69.6873 52.615 69.6873Z" fill="#151515"/>
<path d="M83.3178 0.90056H49.9774C48.4393 0.893372 46.973 1.63129 46.0506 2.86035C45.1522 1.66243 43.7243 0.883789 42.1143 0.883789H8.77624C8.23238 0.883789 7.79395 1.32462 7.79395 1.86608V55.2069C7.79395 55.7508 8.23717 56.1892 8.77863 56.1892C8.86728 56.1892 38.0797 56.17 38.0797 56.17C40.8588 56.1724 43.523 57.4829 45.224 59.6775C45.5595 60.2405 46.4387 60.2861 46.8293 59.747C48.5255 57.5404 51.1969 56.2227 53.9808 56.2227H53.9856L83.3178 56.2371C83.8449 56.2467 84.3121 55.7819 84.3025 55.2548V1.88525C84.3001 1.34139 83.8617 0.90056 83.3178 0.90056ZM45.0635 56.7115C43.1109 55.1135 40.636 54.2054 38.0797 54.203L9.75853 54.1911V2.85077H42.1143C43.741 2.85077 45.0635 4.17327 45.0635 5.79764V56.7115ZM82.3355 54.2725L53.988 54.2582C53.9856 54.2582 53.9832 54.2582 53.9832 54.2582C51.4436 54.2582 48.9807 55.159 47.0353 56.7402L47.0305 5.81681C46.997 4.23077 48.3937 2.834 49.9774 2.86754H82.3331V54.2725H82.3355Z" fill="#151515"/>
<path d="M52.6445 23.9077V9.63574H76.7227V23.9077H52.6445Z" stroke="#151515" stroke-width="1.4375"/>
<path d="M52.6445 47.4707V33.1987H76.7227V47.4707H52.6445Z" stroke="#151515" stroke-width="1.4375"/>
<path d="M40.1678 11.0588H14.6522C14.1084 11.0588 13.6699 11.4997 13.6699 12.0411V45.0294C13.6699 45.5708 14.1108 46.0116 14.6522 46.0116H40.1678C40.7117 46.0116 41.1501 45.5708 41.1501 45.0294V12.0411C41.1525 11.4997 40.7117 11.0588 40.1678 11.0588ZM29.4776 44.0471L28.0928 41.3781L32.3694 34.5596L38.3829 44.0495H29.4776V44.0471ZM39.1855 41.644L33.196 32.1901C32.839 31.5863 31.8878 31.5887 31.5333 32.1949L27.0435 39.3536L22.949 31.4546C22.6232 30.7717 21.5738 30.7526 21.2216 31.4234L15.6369 41.299V13.0282H39.1879V41.644H39.1855Z" fill="#151515"/>
<path d="M31.5558 22.9591C31.5558 24.9117 29.9722 26.493 28.0172 26.493C26.0622 26.493 24.4785 24.9117 24.4785 22.9591C24.4785 21.0065 26.0622 19.4253 28.0172 19.4253C29.9722 19.4253 31.5558 21.0065 31.5558 22.9591Z" fill="#151515"/>
<path d="M91.9997 8.91683C91.9997 9.6236 91.4271 10.1962 90.7227 10.1962C90.016 10.1962 89.4434 9.6236 89.4434 8.91683C89.4434 8.21005 90.016 7.63745 90.7227 7.63745C91.4271 7.63985 91.9997 8.21245 91.9997 8.91683Z" fill="#151515"/>
<path d="M2.55635 8.91683C2.55635 9.6236 1.98375 10.1962 1.27698 10.1962C0.570208 10.1962 0 9.6236 0 8.91683C0 8.21005 0.572604 7.63745 1.27698 7.63745C1.98135 7.63745 2.55635 8.21245 2.55635 8.91683Z" fill="#151515"/>
</svg>
