<svg width="97" height="97" viewBox="0 0 97 97" fill="none" xmlns="http://www.w3.org/2000/svg">
<g id="42_kimono_Service 2_Light" clip-path="url(#clip0_266_74)">
<g id="icon" clip-path="url(#clip1_266_74)">
<path id="Vector 5" d="M62 36V30H67.5L69.5 32.5L73.5 35L75 39V43.5V46L72.5 51L67.5 53L62 54V48H65.5L69.5 45V42V39L68 36H65.5H62Z" fill="var(--secondary-color)"/>
<circle id="Ellipse 705" cx="41" cy="28" r="4" fill="var(--secondary-color)"/>
<g id="Clip path group">
<mask id="mask0_266_74" style="mask-type:luminance" maskUnits="userSpaceOnUse" x="-1" y="-5" width="95" height="94">
<g id="clipPath1223">
<path id="path1221" d="M-0.00195312 -4.99998H93.998V89H-0.00195312V-4.99998Z" fill="white"/>
</g>
</mask>
<g mask="url(#mask0_266_74)">
<g id="g1219">
<g id="g1225">
<path id="path1227" d="M81.9653 64.2019C88.4615 58.9862 92.6201 50.9786 92.6201 41.9999C92.6201 26.2843 79.8787 13.5429 64.1631 13.5429C63.6088 13.5429 63.058 13.5594 62.5107 13.5906" stroke="#151515" stroke-width="3.10547" stroke-miterlimit="10" stroke-linecap="round" stroke-linejoin="round"/>
</g>
<g id="g1229">
<path id="path1231" d="M62.5107 70.4093C63.0579 70.4405 63.6086 70.457 64.1631 70.457C68.6145 70.457 72.8274 69.4348 76.5797 67.6122" stroke="#151515" stroke-width="3.10547" stroke-miterlimit="10" stroke-linecap="round" stroke-linejoin="round"/>
</g>
<g id="g1233">
<path id="path1235" d="M62.5107 53.4231C63.0505 53.5021 63.6031 53.5425 64.1631 53.5425C70.5264 53.5425 75.7056 48.3633 75.7056 41.9999C75.7056 35.6366 70.5264 30.4574 64.1631 30.4574C63.6031 30.4574 63.0505 30.4978 62.5107 30.5767" stroke="#151515" stroke-width="3.10547" stroke-miterlimit="10" stroke-linecap="round" stroke-linejoin="round"/>
</g>
<g id="g1237">
<path id="path1239" d="M62.5107 47.8052C63.0358 47.9557 63.5903 48.0347 64.1631 48.0347C67.4953 48.0347 70.1978 45.3322 70.1978 41.9999C70.1978 38.6677 67.4953 35.9652 64.1631 35.9652C63.5903 35.9652 63.0358 36.0442 62.5107 36.1947" stroke="#151515" stroke-width="3.10547" stroke-miterlimit="10" stroke-linecap="round" stroke-linejoin="round"/>
</g>
<g id="g1241">
<path id="path1243" d="M10.0156 68.2539C10.0156 68.2539 13.4615 49.3579 26.1908 49.3579C38.9199 49.3579 46.998 68.2539 46.998 68.2539H10.0156Z" stroke="#151515" stroke-width="3.10547" stroke-miterlimit="10" stroke-linecap="round" stroke-linejoin="round"/>
</g>
<g id="g1245">
<path id="path1247" d="M1.37402 25.3917V10.9727C1.37402 10.5669 1.70284 10.2383 2.1084 10.2383H61.5928C61.9983 10.2383 62.3271 10.5669 62.3271 10.9727V73.0273C62.3271 73.4329 61.9983 73.7617 61.5928 73.7617H2.1084C1.70284 73.7617 1.37402 73.4329 1.37402 73.0273V32.0011" stroke="#151515" stroke-width="3.10547" stroke-miterlimit="10" stroke-linecap="round" stroke-linejoin="round"/>
</g>
<g id="g1249">
<path id="path1251" d="M6.88184 67.5195V16.4805C6.88184 16.0749 7.21065 15.7461 7.61621 15.7461H56.085C56.4905 15.7461 56.8193 16.0749 56.8193 16.4805V67.5195C56.8193 67.9251 56.4905 68.2539 56.085 68.2539H7.61621C7.21065 68.2539 6.88184 67.9251 6.88184 67.5195Z" stroke="#151515" stroke-width="3.10547" stroke-miterlimit="10" stroke-linecap="round" stroke-linejoin="round"/>
</g>
<g id="g1253">
<path id="path1255" d="M45.249 27.7939C45.249 30.3288 43.1941 32.3838 40.6592 32.3838C38.1243 32.3838 36.0693 30.3288 36.0693 27.7939C36.0693 25.2591 38.1243 23.2041 40.6592 23.2041C43.1941 23.2041 45.249 25.2591 45.249 27.7939Z" stroke="#151515" stroke-width="3.10547" stroke-miterlimit="10" stroke-linecap="round" stroke-linejoin="round"/>
</g>
</g>
</g>
</g>
</g>
</g>
<defs>
<clipPath id="clip0_266_74">
<rect width="1920" height="2429" fill="white" transform="translate(-1417 -1502)"/>
</clipPath>
<clipPath id="clip1_266_74">
<rect width="97" height="97" fill="white"/>
</clipPath>
</defs>
</svg>
