<svg width="92" height="67" viewBox="0 0 92 67" fill="none" xmlns="http://www.w3.org/2000/svg">
<g id="icon">
<rect id="Rectangle 786" x="11" y="7" width="12" height="4" fill="var(--secondary-color)"/>
<path id="Vector" d="M86.5012 66.0383H5.60249C2.9856 66.0383 0.859375 63.912 0.859375 61.2951V15.1316C0.859375 12.5147 2.9856 10.3885 5.60249 10.3885H31.342L33.1003 3.47827C33.6114 1.45427 34.8994 0.248047 36.5349 0.248047H55.5074C57.1429 0.248047 58.4309 1.45427 58.942 3.47827L60.7003 10.3885H86.4398C89.0567 10.3885 91.1829 12.5147 91.1829 15.1316V61.3156C91.2443 63.912 89.118 66.0383 86.5012 66.0383ZM5.60249 12.4329C4.11004 12.4329 2.90382 13.6392 2.90382 15.1316V61.3156C2.90382 62.808 4.11004 64.0143 5.60249 64.0143H86.4807C87.9732 64.0143 89.1794 62.808 89.1794 61.3156V15.1316C89.1794 13.6392 87.9732 12.4329 86.4807 12.4329H59.9643C59.494 12.4329 59.0852 12.1263 58.9829 11.656L57.0203 3.96893C56.8567 3.33516 56.4478 2.29249 55.5483 2.29249H36.5758C35.6763 2.29249 35.2674 3.3556 35.1038 3.96893L33.1412 11.656C33.0185 12.1058 32.6096 12.4329 32.1598 12.4329H5.60249Z" fill="#151515"/>
<path id="Vector 6" d="M39 42V33.5H40L46 30.5L53 34V42L46 46L39 42Z" fill="var(--secondary-color)"/>
<path id="Vector_2" d="M90.2221 26.1512H69.4506C68.8781 26.1512 68.4283 25.7014 68.4283 25.1289C68.4283 24.5565 68.8781 24.1067 69.4506 24.1067H90.2221C90.7946 24.1067 91.2443 24.5565 91.2443 25.1289C91.2443 25.7014 90.7741 26.1512 90.2221 26.1512ZM22.6532 26.1512H1.90211C1.32966 26.1512 0.879883 25.7014 0.879883 25.1289C0.879883 24.5565 1.32966 24.1067 1.90211 24.1067H22.6737C23.2461 24.1067 23.6959 24.5565 23.6959 25.1289C23.6959 25.7014 23.2257 26.1512 22.6532 26.1512ZM90.2221 21.0401H65.7297C65.1572 21.0401 64.7074 20.5903 64.7074 20.0178C64.7074 19.4454 65.1572 18.9956 65.7297 18.9956H90.2221C90.7946 18.9956 91.2443 19.4454 91.2443 20.0178C91.2443 20.5903 90.7741 21.0401 90.2221 21.0401ZM26.3741 21.0401H1.90211C1.32966 21.0401 0.879883 20.5903 0.879883 20.0178C0.879883 19.4454 1.32966 18.9956 1.90211 18.9956H26.3741C26.9466 18.9956 27.3963 19.4454 27.3963 20.0178C27.3963 20.5903 26.9466 21.0401 26.3741 21.0401Z" fill="#151515"/>
<path id="Vector_3" d="M46.0621 61.0293C33.4888 61.0293 23.2461 50.8071 23.2461 38.2133C23.2461 25.6195 33.4683 15.4177 46.0621 15.4177C58.6559 15.4177 68.8781 25.6399 68.8781 38.2337C68.8781 50.8275 58.6354 61.0293 46.0621 61.0293ZM46.0621 17.4622C34.6132 17.4622 25.2905 26.7848 25.2905 38.2337C25.2905 49.6826 34.6132 59.0053 46.0621 59.0053C57.511 59.0053 66.8336 49.6826 66.8336 38.2337C66.8132 26.7644 57.511 17.4622 46.0621 17.4622Z" fill="#151515"/>
<path id="Vector_4" d="M46.0608 47.0862C45.8768 47.0862 45.7132 47.0453 45.5496 46.9431L38.7621 43.0177C38.4554 42.8337 38.251 42.5066 38.251 42.1386V34.3084C38.251 33.9404 38.4554 33.6133 38.7621 33.4293L45.5496 29.504C45.8563 29.32 46.2652 29.32 46.5719 29.504L53.3594 33.4089C53.6661 33.5929 53.8705 33.92 53.8705 34.288V42.1182C53.8705 42.4862 53.6661 42.8133 53.3594 42.9973L46.5719 46.9226C46.4083 47.0453 46.2243 47.0862 46.0608 47.0862ZM40.2954 41.5457L46.0608 44.8782L51.8261 41.5457V34.8809L46.0608 31.5689L40.2954 34.9013V41.5457Z" fill="#151515"/>
<path id="Vector_5" d="M46.0609 31.4053C45.7951 31.4053 45.5089 31.303 45.3249 31.0782C44.9365 30.6693 44.9569 30.015 45.3658 29.6266L56.6307 18.975C57.0396 18.5866 57.6938 18.607 58.0822 19.0159C58.4707 19.4248 58.4502 20.079 58.0413 20.4675L46.7765 31.119C46.5516 31.303 46.3062 31.4053 46.0609 31.4053Z" fill="#151515"/>
<path id="Vector_6" d="M67.6915 39.7465C67.5892 39.7465 67.487 39.7261 67.4052 39.7057L52.5421 35.2897C52.0106 35.1261 51.6835 34.5537 51.847 34.0221C52.0106 33.4905 52.583 33.1634 53.1146 33.327L67.9572 37.7634C68.4888 37.927 68.8159 38.4994 68.6523 39.031C68.5297 39.4603 68.1208 39.7465 67.6915 39.7465Z" fill="#151515"/>
<path id="Vector_7" d="M56.4265 58.2284C55.9563 58.2284 55.5474 57.9217 55.4248 57.4515L51.847 42.384C51.7243 41.832 52.0514 41.28 52.6034 41.1573C53.1554 41.0346 53.7074 41.3617 53.8301 41.9137L57.4079 56.9813C57.5305 57.5333 57.2034 58.0853 56.6514 58.2079C56.5901 58.2284 56.5083 58.2284 56.4265 58.2284Z" fill="#151515"/>
<path id="Vector_8" d="M34.7962 57.7173C34.5305 57.7173 34.2442 57.6151 34.0602 57.3902C33.6718 56.9813 33.6922 56.3271 34.1011 55.9386L45.366 45.2871C45.7749 44.8986 46.4291 44.9191 46.8176 45.3279C47.206 45.7368 47.1856 46.3911 46.7767 46.7795L35.5118 57.4311C35.3074 57.6355 35.0416 57.7173 34.7962 57.7173Z" fill="#151515"/>
<path id="Vector_9" d="M39.2735 43.1608C39.1713 43.1608 39.069 43.1403 38.9873 43.1199L24.1242 38.6835C23.5926 38.5199 23.2655 37.9475 23.429 37.4159C23.5926 36.8843 24.165 36.5572 24.6966 36.7208L39.5393 41.1572C40.0708 41.3208 40.3979 41.8932 40.2344 42.4248C40.1117 42.8746 39.7028 43.1608 39.2735 43.1608Z" fill="#151515"/>
<path id="Vector_10" d="M39.2527 35.3307C38.7825 35.3307 38.3736 35.024 38.2509 34.5538L34.6732 19.4862C34.5505 18.9342 34.8776 18.3822 35.4296 18.2596C35.9816 18.1369 36.5336 18.464 36.6563 19.016L40.234 34.0836C40.3567 34.6356 40.0296 35.1876 39.4776 35.3102C39.4163 35.3102 39.3345 35.3307 39.2527 35.3307Z" fill="#151515"/>
<path id="Vector_11" d="M46.0612 66.0382C30.7074 66.0382 18.2363 53.5466 18.2363 38.2133C18.2363 22.88 30.7279 10.3884 46.0612 10.3884C61.415 10.3884 73.8861 22.88 73.8861 38.2133C73.8861 53.5466 61.3946 66.0382 46.0612 66.0382ZM46.0612 12.4329C31.8523 12.4329 20.2808 24.0044 20.2808 38.2133C20.2808 52.4222 31.8523 63.9938 46.0612 63.9938C60.2701 63.9938 71.8417 52.4222 71.8417 38.2133C71.8417 24.0044 60.2701 12.4329 46.0612 12.4329Z" fill="#151515"/>
<path id="Vector_12" d="M23.6939 12.4329C23.1214 12.4329 22.6716 11.9832 22.6716 11.4107V7.71028H12.0405V11.4107C12.0405 11.9832 11.5908 12.4329 11.0183 12.4329C10.4459 12.4329 9.99609 11.9832 9.99609 11.4107V6.7085C9.99609 6.13606 10.4459 5.68628 11.0183 5.68628H23.6939C24.2663 5.68628 24.7161 6.13606 24.7161 6.7085V11.4312C24.7161 11.9832 24.2459 12.4329 23.6939 12.4329Z" fill="#151515"/>
<path id="Vector_13" d="M81.0825 12.4329H68.407C67.8345 12.4329 67.3848 11.9832 67.3848 11.4107V6.7085C67.3848 6.13606 67.8345 5.68628 68.407 5.68628H81.0825C81.655 5.68628 82.1048 6.13606 82.1048 6.7085V11.4312C82.1048 11.9832 81.655 12.4329 81.0825 12.4329ZM69.4292 10.3885H80.0603V7.71028H69.4292V10.3885Z" fill="#151515"/>
</g>
</svg>
