<svg width="106" height="67" viewBox="0 0 106 72" fill="none" xmlns="http://www.w3.org/2000/svg">
<path fill-rule="evenodd" clip-rule="evenodd" d="M1.85986 69.3447H104.141V11.6953H1.85986V69.3447ZM105.071 71.2044H0.929932C0.416672 71.2044 0 70.7884 0 70.2747V10.7656C0 10.2521 0.416183 9.83594 0.929687 9.83594L105.071 9.83569C105.584 9.83569 106 10.2524 106 10.7656L106 70.2747C106 70.7882 105.584 71.2046 105.071 71.2044Z" fill="white"/>
<circle cx="53.0001" cy="40.2399" r="9.18667" fill="var(--secondary-color)"/>
<circle cx="96.1069" cy="17.7554" r="2.82667" fill="var(--secondary-color)"/>
<path fill-rule="evenodd" clip-rule="evenodd" d="M28.0002 37.3137H0.929932C0.416672 37.3137 0 36.8975 0 36.384C0 35.8705 0.416183 35.4543 0.929687 35.4543H28.0002C28.5134 35.4543 28.9296 35.8708 28.9296 36.384C28.9301 36.8975 28.5132 37.314 28.0002 37.3137ZM105.071 37.3137H78.0006C77.4873 37.3137 77.0701 36.8975 77.0701 36.384C77.0704 35.8705 77.4868 35.4543 78.0001 35.4543H105.071C105.584 35.4543 106 35.8708 106 36.384C106 36.8975 105.584 37.314 105.071 37.3137ZM28.0002 45.5997H0.929932C0.416672 45.5997 0 45.1835 0 44.6703C0 44.1565 0.416183 43.7406 0.929687 43.7406L28.0002 43.7403C28.5134 43.7403 28.9296 44.1568 28.9296 44.6703C28.9301 45.1835 28.5132 45.5997 28.0002 45.5997ZM105.071 45.5997H78.0006C77.4873 45.5997 77.0701 45.1835 77.0701 44.6703C77.0704 44.1565 77.4868 43.7406 78.0001 43.7406L105.071 43.7403C105.584 43.7403 106 44.1568 106 44.6703C106 45.1835 105.584 45.5997 105.071 45.5997Z" fill="white"/>
<path fill-rule="evenodd" clip-rule="evenodd" d="M13.4193 11.6951C12.9061 11.6951 12.4896 11.279 12.4896 10.7655L12.4899 2.65478H7.44824V10.7655C7.44824 11.279 7.03181 11.6954 6.51855 11.6954C6.00578 11.6951 5.58887 11.279 5.58887 10.7655V1.72485C5.58887 1.21159 6.0053 0.795166 6.51855 0.795166H13.4193C13.9353 0.795166 14.349 1.21184 14.349 1.7251L14.3492 10.7655C14.3492 11.279 13.935 11.6954 13.4193 11.6951Z" fill="white"/>
<path fill-rule="evenodd" clip-rule="evenodd" d="M53.0006 16.1189C39.5431 16.1189 28.5911 27.0685 28.5911 40.5272C28.5911 53.9857 39.5429 64.9351 53.0004 64.9351C66.4583 64.9351 77.4072 53.9857 77.4072 40.5272C77.4075 27.0685 66.4579 16.1191 53.0006 16.1189ZM53.0006 66.7947C38.5161 66.7947 26.7314 55.0112 26.7314 40.5272C26.7317 26.043 38.5159 14.2595 53.0004 14.2595C67.4851 14.2593 79.2668 26.043 79.2668 40.5272C79.2668 55.011 67.4846 66.7947 53.0006 66.7947Z" fill="white"/>
<path fill-rule="evenodd" clip-rule="evenodd" d="M53.0003 24.3777C44.0947 24.3777 36.8499 31.6223 36.8499 40.5271C36.8499 49.4313 44.0944 56.6761 53.0001 56.6761C61.9035 56.6761 69.1478 49.4316 69.1478 40.5271C69.148 31.622 61.9032 24.3779 53.0003 24.3777ZM53.0003 58.5357C43.0703 58.5357 34.9902 50.4571 34.9902 40.5271C34.9905 30.5967 43.0703 22.5183 53.0001 22.5183C62.9298 22.5183 71.0074 30.597 71.0074 40.5271C71.0074 50.4569 62.9298 58.5357 53.0003 58.5357Z" fill="white"/>
<path fill-rule="evenodd" clip-rule="evenodd" d="M53.0005 33.0576C48.882 33.0576 45.5305 36.4084 45.5305 40.5271C45.531 44.6455 48.8815 47.9962 53.0003 47.9962C57.1193 47.9962 60.4701 44.6455 60.4701 40.5271C60.4703 36.4084 57.1188 33.0576 53.0005 33.0576ZM53.0005 49.8558C47.855 49.8558 43.6709 45.6707 43.6709 40.5271C43.6709 35.3828 47.855 31.1982 53.0003 31.1982C58.1434 31.198 62.3297 35.3831 62.3297 40.5271C62.3297 45.6707 58.1432 49.8558 53.0005 49.8558Z" fill="white"/>
<path fill-rule="evenodd" clip-rule="evenodd" d="M100.054 11.6952C99.5408 11.6952 99.1236 11.279 99.1236 10.7655L99.1239 6.21509H88.5403V10.7655C88.5403 11.279 88.1236 11.6954 87.6104 11.6954C87.0976 11.6952 86.6807 11.279 86.6807 10.7655L86.6809 5.28516C86.6809 4.77165 87.0971 4.35547 87.6104 4.35547H100.054C100.567 4.35547 100.983 4.77165 100.983 5.2854V10.7655C100.983 11.279 100.567 11.6954 100.054 11.6952Z" fill="white"/>
<path fill-rule="evenodd" clip-rule="evenodd" d="M95.6271 16.2405C94.458 16.2405 93.5061 17.1924 93.5061 18.362C93.5063 19.5316 94.4576 20.4832 95.6271 20.4832C96.7969 20.483 97.7481 19.5318 97.7481 18.362C97.7486 17.1922 96.7967 16.2407 95.6271 16.2405ZM95.6271 22.3429C93.431 22.3429 91.6465 20.5571 91.6465 18.362C91.647 16.1669 93.431 14.3813 95.6271 14.3813C97.821 14.3811 99.6078 16.1671 99.6078 18.362C99.608 20.5568 97.8208 22.3429 95.6271 22.3429Z" fill="white"/>
<path fill-rule="evenodd" clip-rule="evenodd" d="M19.9329 16.7454H5.64966C5.1364 16.7454 4.71973 16.3292 4.71973 15.8159C4.72022 15.3022 5.13615 14.8862 5.64941 14.8862L19.9329 14.886C20.4462 14.886 20.8626 15.3024 20.8626 15.8159C20.8631 16.3292 20.4462 16.7454 19.9329 16.7454Z" fill="white"/>
<path fill-rule="evenodd" clip-rule="evenodd" d="M19.9329 21.6848H5.64966C5.1364 21.6848 4.71973 21.2686 4.71973 20.7551C4.72022 20.2416 5.13615 19.8257 5.64941 19.8257L19.9329 19.8254C20.4462 19.8254 20.8626 20.2419 20.8626 20.7551C20.8631 21.2686 20.4462 21.6851 19.9329 21.6848Z" fill="white"/>
</svg>
