<svg width="96" height="67" viewBox="0 0 96 68" fill="none" xmlns="http://www.w3.org/2000/svg">
<path fill-rule="evenodd" clip-rule="evenodd" d="M6.45217 16.5772C4.33384 16.5772 2.60841 18.3014 2.60841 20.4202L2.60872 43.5223C2.60872 45.641 4.33323 47.3648 6.45144 47.3648L43.2572 47.3644V16.5772H6.45217ZM44.3466 49.5431H6.45217C3.13041 49.5431 0.429688 46.8425 0.429688 43.5223L0.429993 20.4198C0.429993 17.0998 3.13029 14.399 6.45144 14.399L44.3466 14.3989C44.9483 14.3989 45.4357 14.8865 45.4357 15.4883L45.436 48.4538C45.436 49.0555 44.9479 49.5435 44.3466 49.5431Z" fill="white"/>
<path d="M7 43.5V21H26V43.5H7Z" fill="var(--secondary-color)"/>
<path d="M87 31.5L79 23.5C72.6 32.3 76.3333 37.5 79 39L87 31.5Z" fill="var(--secondary-color)"/>
<path fill-rule="evenodd" clip-rule="evenodd" d="M8.13923 41.8537H25.2379V22.0881H8.13923V41.8537ZM26.3273 44.0324H7.04987C6.44816 44.0324 5.95996 43.545 5.95996 42.9434L5.96051 20.9988C5.96051 20.3971 6.44785 19.9096 7.04932 19.9096L26.3273 19.9094C26.929 19.9094 27.4162 20.3974 27.4162 20.999L27.4166 42.9431C27.4166 43.5448 26.9282 44.0327 26.3267 44.0327L26.3273 44.0324Z" fill="white"/>
<path fill-rule="evenodd" clip-rule="evenodd" d="M51.3805 23.7117H44.3464C43.743 23.7117 43.2568 23.2243 43.2568 22.6227C43.2571 22.021 43.743 21.5333 44.3463 21.5333L51.3805 21.533C51.9839 21.533 52.4693 22.0211 52.4693 22.6227C52.4699 23.224 51.9831 23.712 51.3799 23.712L51.3805 23.7117ZM51.3805 42.4091H44.3464C43.743 42.4091 43.2568 41.9214 43.2568 41.3198C43.2571 40.718 43.743 40.2304 44.3463 40.2304L51.3805 40.2304C51.9839 40.2304 52.4693 40.7182 52.4693 41.3198C52.4699 41.9211 51.9831 42.4091 51.3805 42.4091Z" fill="white"/>
<path fill-rule="evenodd" clip-rule="evenodd" d="M52.4703 40.5939L63.4975 45.1952V18.0513L52.4703 23.3101V40.5939ZM64.5869 47.9198C64.4456 47.9198 64.3013 47.8922 64.167 47.8359L50.963 42.325C50.5563 42.1561 50.291 41.7594 50.291 41.3199L50.2916 22.6224C50.2916 22.2029 50.5331 21.8204 50.9113 21.6395L64.118 15.3416C64.4549 15.1807 64.8517 15.2042 65.1675 15.4037C65.4839 15.6028 65.6763 15.951 65.6763 16.3249V46.8301C65.6763 47.1947 65.4946 47.5349 65.1901 47.7371C65.0089 47.8577 64.7988 47.92 64.5869 47.9198Z" fill="white"/>
<path fill-rule="evenodd" clip-rule="evenodd" d="M13.7992 4.04249C10.9337 4.04249 8.59962 6.36567 8.59962 9.22087C8.60005 12.0761 10.9336 14.3991 13.7988 14.3991C16.6665 14.3991 18.9978 12.0761 18.9978 9.22087C18.9984 6.36549 16.6659 4.04262 13.7992 4.04249ZM13.7992 16.5774C9.73116 16.5774 6.4209 13.2774 6.4209 9.22087C6.42133 5.16413 9.73061 1.86401 13.7988 1.86401C17.8673 1.86377 21.1765 5.16425 21.1765 9.22087C21.1771 13.2774 17.8668 16.5777 13.7992 16.5774Z" fill="white"/>
<path fill-rule="evenodd" clip-rule="evenodd" d="M33.7296 7.35756C31.7799 7.35756 30.1924 8.93713 30.1924 10.8783C30.1926 12.8193 31.7791 14.3989 33.729 14.3989C35.6794 14.3989 37.2657 12.8195 37.2657 10.8783C37.2658 8.93713 35.6789 7.3578 33.729 7.3578L33.7296 7.35756ZM33.7296 16.5771C30.5781 16.5771 28.0137 14.0208 28.0137 10.8783C28.0139 7.73547 30.5781 5.1792 33.729 5.1792C36.8802 5.17883 39.4444 7.73584 39.4444 10.8783C39.4445 14.0205 36.8798 16.5775 33.729 16.5775L33.7296 16.5771Z" fill="white"/>
<path fill-rule="evenodd" clip-rule="evenodd" d="M33.731 7.35761C33.6706 7.35761 33.6095 7.35327 33.5491 7.34325L15.6714 4.36871C15.0774 4.26998 14.6762 3.70898 14.7746 3.11552C14.8748 2.52187 15.4345 2.12146 16.0284 2.21964L33.9071 5.1938C34.5004 5.29253 34.9012 5.8539 34.8028 6.44736C34.714 6.98012 34.2525 7.35798 33.731 7.35761Z" fill="white"/>
<path fill-rule="evenodd" clip-rule="evenodd" d="M38.6695 22.0881H31.1401C30.5392 22.0881 30.0508 21.6006 30.0508 20.999C30.0516 20.3971 30.5387 19.9096 31.1401 19.9096L38.6695 19.9094C39.2711 19.9094 39.7585 20.3974 39.7585 20.999C39.7588 21.6006 39.2707 22.0883 38.6695 22.0881Z" fill="white"/>
<path fill-rule="evenodd" clip-rule="evenodd" d="M38.6695 26.4773H31.1401C30.5392 26.4773 30.0508 25.9896 30.0508 25.388C30.0516 24.7862 30.5387 24.2988 31.1401 24.2988L38.6695 24.2986C39.2711 24.2986 39.7585 24.7864 39.7585 25.388C39.7588 25.9892 39.2707 26.4774 38.6695 26.4773Z" fill="white"/>
<path fill-rule="evenodd" clip-rule="evenodd" d="M38.6695 44.0325H31.1401C30.5392 44.0325 30.0508 43.5451 30.0508 42.9434C30.0516 42.3415 30.5387 41.8541 31.1401 41.8541L38.6695 41.8538C39.2711 41.8538 39.7585 42.3418 39.7585 42.9434C39.7588 43.5448 39.2707 44.0328 38.6695 44.0325Z" fill="white"/>
<path fill-rule="evenodd" clip-rule="evenodd" d="M38.6695 30.8658H31.1401C30.5392 30.8658 30.0508 30.3786 30.0508 29.7768C30.0516 29.1752 30.5387 28.6876 31.1401 28.6876L38.6695 28.6875C39.2711 28.6875 39.7585 29.1753 39.7585 29.7768C39.7588 30.3786 39.2707 30.8662 38.6695 30.8658Z" fill="white"/>
<path fill-rule="evenodd" clip-rule="evenodd" d="M38.6695 35.2547H31.1401C30.5392 35.2547 30.0508 34.7674 30.0508 34.1657C30.0516 33.5636 30.5387 33.0765 31.1401 33.0765L38.6695 33.0764C39.2711 33.0764 39.7585 33.5641 39.7585 34.1657C39.7588 34.7671 39.2707 35.2551 38.6695 35.2547Z" fill="white"/>
<path fill-rule="evenodd" clip-rule="evenodd" d="M38.6695 39.6436H31.1401C30.5392 39.6436 30.0508 39.1563 30.0508 38.5546C30.0516 37.9529 30.5387 37.4652 31.1401 37.4652L38.6695 37.4648C39.2711 37.4648 39.7585 37.953 39.7585 38.5546C39.7588 39.1559 39.2707 39.6439 38.6695 39.6436Z" fill="white"/>
<path fill-rule="evenodd" clip-rule="evenodd" d="M9.2053 67.0123C8.47765 67.0123 7.73931 66.8283 7.06411 66.4402C6.07164 65.8684 5.36203 64.9429 5.06322 63.8326C4.76698 62.7238 4.91766 61.5695 5.49065 60.5811L12.8325 47.908C13.1338 47.3877 13.7989 47.21 14.3208 47.5118C14.841 47.8132 15.0188 48.4799 14.718 49.0004L7.37637 61.6727C7.09639 62.1565 7.02254 62.7233 7.16816 63.2686C7.31597 63.8153 7.66369 64.2714 8.1517 64.5516C9.16526 65.1349 10.4647 64.788 11.049 63.7792L20.2428 47.908C20.5457 47.3877 21.2107 47.2102 21.7308 47.5118C22.2512 47.8132 22.4287 48.4799 22.1279 49.0004L12.9346 64.871C12.1389 66.2438 10.6916 67.0127 9.2053 67.0123Z" fill="white"/>
<path fill-rule="evenodd" clip-rule="evenodd" d="M36.6603 67.0123C35.1735 67.0123 33.7267 66.2443 32.9304 64.8714L23.7377 49.0004C23.4347 48.4795 23.6123 47.8135 24.1342 47.5118C24.6543 47.2098 25.32 47.388 25.6227 47.9084L34.816 63.7791C35.4007 64.7881 36.6997 65.1345 37.7135 64.5518C38.2015 64.271 38.5494 63.8156 38.6969 63.2683C38.8432 62.7229 38.7688 62.1567 38.4887 61.6731L31.147 49.0004C30.8466 48.4795 31.024 47.8135 31.5442 47.5118C32.0646 47.2098 32.7319 47.388 33.0326 47.9084L40.3752 60.5808C40.9463 61.5689 41.0987 62.7239 40.8018 63.8323C40.5036 64.9425 39.7919 65.8689 38.8009 66.4402C38.1257 66.828 37.3881 67.0127 36.6603 67.0123Z" fill="white"/>
<path fill-rule="evenodd" clip-rule="evenodd" d="M73.75 46.8701C73.4701 46.8701 73.1918 46.7636 72.9782 46.55C72.5551 46.1237 72.5545 45.4342 72.982 45.0094L86.0641 31.971L72.9824 18.9331C72.5551 18.5084 72.5545 17.819 72.9782 17.3928C73.4045 16.9667 74.092 16.9656 74.5195 17.3904L88.3756 31.1995C88.5799 31.4037 88.6944 31.6819 88.6944 31.9713C88.6947 32.2608 88.5791 32.5385 88.3749 32.743L74.5203 46.5527C74.3067 46.7641 74.0278 46.8704 73.75 46.8701Z" fill="white"/>
<path fill-rule="evenodd" clip-rule="evenodd" d="M79.6107 41.0286C79.3818 41.0286 79.1525 40.9577 78.9558 40.8108C76.1435 38.6992 74.5303 35.4774 74.5303 31.9711C74.5307 28.4648 76.1435 25.2431 78.9558 23.1318C79.4388 22.7699 80.1209 22.8681 80.482 23.349C80.844 23.8299 80.745 24.5131 80.2646 24.8741C78.0048 26.5699 76.709 29.1569 76.709 31.9711C76.7094 34.7852 78.0044 37.3723 80.2646 39.0682C80.7452 39.429 80.8433 40.1122 80.482 40.5933C80.2686 40.8784 79.9412 41.0289 79.6107 41.0286Z" fill="white"/>
<path fill-rule="evenodd" clip-rule="evenodd" d="M94.4832 62.9545C94.3155 62.9549 94.1466 62.9163 93.9933 62.8387L64.0969 47.8039C63.5598 47.5332 63.3418 46.8786 63.6123 46.3411C63.8832 45.8034 64.537 45.5872 65.076 45.8574L93.3938 60.0983V3.80299L65.056 17.3086C64.5113 17.5673 63.8619 17.3371 63.6028 16.7938C63.3437 16.2507 63.5744 15.6006 64.1173 15.3418L94.0142 1.09364C94.3513 0.933236 94.7478 0.956709 95.0637 1.15624C95.3802 1.35541 95.5724 1.70355 95.5724 2.07743L95.5726 61.8651C95.5726 62.2434 95.3757 62.5946 95.0544 62.793C94.879 62.9004 94.6818 62.9548 94.4832 62.9545Z" fill="white"/>
</svg>
