<svg width="110" height="67" viewBox="0 0 110 110" fill="none" xmlns="http://www.w3.org/2000/svg">
<rect x="47" y="55" width="16" height="11" fill="var(--secondary-color)"/>
<rect x="91" y="27" width="7" height="19" fill="var(--secondary-color)"/>
<rect x="11" y="27" width="7" height="19" fill="var(--secondary-color)"/>
<path d="M106.562 19.5858H95.9915V18.8689C95.9915 18.2757 95.5107 17.7947 94.9173 17.7947C94.3239 17.7947 93.8431 18.2757 93.8431 18.8689V19.5858H83.2721C82.6787 19.5858 82.1979 20.0669 82.1979 20.66C82.1979 21.2532 82.6787 21.7343 83.2721 21.7343H93.8431V25.8296H91.2022C90.6088 25.8296 90.128 26.3107 90.128 26.9038V31.7344H75.3148C74.5763 25.9233 69.6049 21.4146 63.5965 21.4146H46.4039C40.3956 21.4146 35.4239 25.9233 34.6857 31.7344H19.8722V26.9038C19.8722 26.3107 19.3914 25.8296 18.798 25.8296H16.1571V21.7343H26.7281C27.3215 21.7343 27.8023 21.2532 27.8023 20.66C27.8023 20.0669 27.3215 19.5858 26.7281 19.5858H16.1571V18.8689C16.1571 18.2757 15.6763 17.7947 15.0829 17.7947C14.4895 17.7947 14.0087 18.2757 14.0087 18.8689V19.5858H3.4375C2.8441 19.5858 2.36328 20.0669 2.36328 20.66C2.36328 21.2532 2.8441 21.7343 3.4375 21.7343H14.0085V25.8296H11.3676C10.7742 25.8296 10.2934 26.3107 10.2934 26.9038V43.3276C10.2934 45.9684 12.442 48.1169 15.0829 48.1169C17.7238 48.1169 19.8722 45.9684 19.8722 43.3276V40.8251H37.5528C27.2929 46.5208 20.4059 56.9042 19.2171 68.6194H15.6479C13.6265 68.6194 11.9818 70.264 11.9818 72.2855C11.9818 74.307 13.6265 75.9514 15.6479 75.9514H22.6978C24.7193 75.9514 26.3637 74.307 26.3637 72.2855C26.3637 61.5422 32.4582 51.6435 41.9785 46.7715L43.1456 49.2465C44.0548 51.1754 45.8711 52.3269 48.0036 52.3269H51.1895V54.4621H49.5758C47.7989 54.4621 46.3532 55.9077 46.3532 57.6847V63.8898C46.3532 65.6668 47.7989 67.1125 49.5758 67.1125H60.4231C62.2001 67.1125 63.6457 65.6668 63.6457 63.8898V57.6847C63.6457 55.9077 62.2001 54.4621 60.4231 54.4621H58.8094V52.3269H61.9955C64.1279 52.3269 65.9439 51.1754 66.8536 49.2465L68.0225 46.7672C77.547 51.6373 83.6453 61.5407 83.6453 72.2855C83.6453 74.307 85.29 75.9516 87.3129 75.9516L94.3613 75.9415C96.3774 75.9415 98.0175 74.3014 98.0175 72.2853C98.0175 70.2694 96.3774 68.6293 94.3613 68.6293H90.7936C89.6075 56.9093 82.7202 46.5225 72.4569 40.8249H90.1272V43.3274C90.1272 45.9682 92.2756 48.1167 94.9165 48.1167C97.5573 48.1167 99.706 45.9682 99.706 43.3274V26.9036C99.706 26.3104 99.2252 25.8294 98.6318 25.8294H95.9907V21.7341H106.562C107.156 21.7341 107.637 21.253 107.637 20.6598C107.637 20.0667 107.156 19.5858 106.562 19.5858ZM17.7238 43.3278C17.7238 44.784 16.5391 45.9686 15.0829 45.9686C13.6267 45.9686 12.4418 44.784 12.4418 43.3278V27.9783H17.7238V43.3278ZM36.7357 33.2312C36.7357 27.9003 41.0728 23.5632 46.4037 23.5632H63.5963C68.9272 23.5632 73.2643 27.9003 73.2643 33.2312V36.5284C73.2643 37.7131 72.3005 38.6768 71.1159 38.6768H38.8841C37.6995 38.6768 36.7357 37.7131 36.7357 36.5284V33.2312ZM19.8722 33.8828H34.5873V36.5282C34.5873 37.3113 34.8013 38.0437 35.1686 38.6766H19.8722V33.8828ZM29.1193 55.6085C25.9112 60.583 24.2157 66.35 24.2157 72.2857C24.2157 73.1225 23.5348 73.8032 22.6982 73.8032H15.6479C14.8109 73.8032 14.1303 73.1223 14.1303 72.2857C14.1303 71.4487 14.8111 70.7681 15.6479 70.7681H20.2011C20.7638 70.7681 21.2313 70.3339 21.2723 69.7725C22.1416 57.9344 29.1943 47.4203 39.7669 42.0815L41.0616 44.8272C36.1997 47.2987 32.0858 51.0082 29.1193 55.6085ZM61.4979 57.6847V63.8898C61.4979 64.4822 61.0161 64.9641 60.4237 64.9641H49.5765C48.9842 64.9641 48.5023 64.4822 48.5023 63.8898V57.6847C48.5023 57.0924 48.9842 56.6105 49.5765 56.6105H60.4237C61.0158 56.6105 61.4979 57.0924 61.4979 57.6847ZM56.6616 54.4621H53.3384V52.3269H56.6616V54.4621ZM64.911 48.3304C64.3653 49.4878 63.2756 50.1787 61.9962 50.1787H48.004C46.7244 50.1787 45.635 49.4878 45.0893 48.3304L41.5501 40.8251H68.4499L64.911 48.3304ZM88.7384 69.7821C88.7792 70.3435 89.2467 70.7782 89.8096 70.7782H94.362C95.1932 70.7782 95.8697 71.4543 95.8697 72.2857C95.8697 73.1172 95.1934 73.7935 94.3607 73.7935L87.3123 73.8036C86.4753 73.8036 85.7946 73.1227 85.7946 72.2859C85.7946 66.3539 84.1006 60.5896 80.8958 55.6166C77.9275 51.0106 73.8085 47.297 68.9399 44.824L70.2348 42.0776C80.8156 47.4167 87.872 57.9363 88.7384 69.7821ZM74.8314 38.6768C75.1987 38.0439 75.4127 37.3115 75.4127 36.5284V33.8828H90.1278V38.6766H74.8314V38.6768ZM97.5582 43.3278C97.5582 44.784 96.3733 45.9686 94.9171 45.9686C93.4609 45.9686 92.2762 44.784 92.2762 43.3278V27.9783H97.5582V43.3278ZM69.236 84.7984C69.6556 85.2178 69.6556 85.898 69.236 86.3174C65.311 90.2426 60.1554 92.2047 55 92.2047C49.8444 92.2047 44.6888 90.2424 40.7638 86.3174C40.3442 85.898 40.3442 85.2178 40.7638 84.7984C41.183 84.3788 41.8636 84.3788 42.2828 84.7984C45.6801 88.1953 50.1961 90.066 55 90.066C59.8039 90.066 64.3201 88.1953 67.717 84.7984C68.1362 84.3788 68.8168 84.3788 69.236 84.7984ZM48.1637 78.9179C51.9333 82.6867 58.0663 82.6872 61.8363 78.9179C62.2555 78.4984 62.9361 78.4984 63.3553 78.9179C63.7749 79.3373 63.7749 80.0175 63.3553 80.4371C61.0517 82.7404 58.0259 83.8922 54.9998 83.8922C51.9739 83.8922 48.9481 82.7404 46.6445 80.4371C46.2249 80.0175 46.2249 79.3373 46.6443 78.9179C47.0641 78.4984 47.7445 78.4984 48.1637 78.9179ZM55 73.8004C54.0534 73.8004 53.2812 73.0282 53.2812 72.0816C53.2812 71.135 54.0534 70.3629 55 70.3629C55.9466 70.3629 56.7188 71.135 56.7188 72.0816C56.7188 73.0282 55.9468 73.8004 55 73.8004ZM55 64.1066C56.8305 64.1066 58.3193 62.6175 58.3193 60.7873C58.3193 58.957 56.8303 57.4682 55 57.4682C53.1697 57.4682 51.6807 58.9572 51.6807 60.7873C51.6807 62.6175 53.1697 64.1066 55 64.1066ZM55 59.6166C55.6456 59.6166 56.1709 60.1417 56.1709 60.7873C56.1709 61.4329 55.6456 61.9582 55 61.9582C54.3544 61.9582 53.8291 61.4329 53.8291 60.7873C53.8291 60.1417 54.3546 59.6166 55 59.6166Z" fill="white"/>
</svg>
